<?xml version="1.0" encoding="UTF-8"?>
<svg id="Layer_1" xmlns="http://www.w3.org/2000/svg" version="1.1" viewBox="0 0 3840 2160">
  <!-- Generator: Adobe Illustrator 29.3.0, SVG Export Plug-In . SVG Version: 2.1.0 Build 146)  -->
  <path d="M1445.6,1550.3l-340.2-1268.9c-4.5-16.8,16-28.8,28.5-16.7l402.5,343.5,229.7,856.2c23.7,88.5-28.8,179.4-117.3,203.1h0c-88.5,23.7-179.4-28.8-203.1-117.3Z"/>
  <rect x="1752.2" y="594.9" width="331.7" height="1092.1" rx="23.7" ry="23.7" transform="translate(-229.9 535.3) rotate(-15)"/>
  <path d="M2287.1,1611.8l-212-794.5c-23.7-88.5,28.8-179.4,117.3-203.1h0c88.5-23.7,179.4,28.8,203.1,117.3l306.5,1147.2c4.2,15.6-13.6,27.8-26.7,18.2l-388.2-285.1Z"/>
  <path d="M1250.8,1611.8l61.8-237.8h-341.4l-135.2,504.6c-4.2,15.6,13.6,27.8,26.7,18.2l388.2-285.1Z"/>
  <path d="M2588.5,669.8l-61.8,237.8h341.4l135.2-504.6c4.2-15.6-13.6-27.8-26.7-18.2l-388.2,285.1Z"/>
  <path d="M1223.7,975H379.2c-19.6,0-35.5,15.9-35.5,35.5v260.6c0,19.6,15.9,35.5,35.5,35.5h933.4l-88.9-331.7Z"/>
  <path d="M3460.8,975h-934.1l88.9,331.7h845.3c19.6,0,35.5-15.9,35.5-35.5v-260.6c0-19.6-15.9-35.5-35.5-35.5Z"/>
</svg>